<mxfile host="app.diagrams.net" modified="2024-07-16T08:59:20.891Z" agent="Mozilla/5.0 (Windows NT 10.0; Win64; x64) AppleWebKit/537.36 (KHTML, like Gecko) Chrome/126.0.0.0 Safari/537.36" version="24.6.5" etag="u4j_CF892w5_VHutDdH1" type="github">
  <diagram name="Page-1" id="oOXFSjNoBcH_h9MD4tYw">
    <mxGraphModel>
      <root>
        <mxCell id="0" />
        <mxCell id="1" parent="0" />
      </root>
    </mxGraphModel>
  </diagram>
</mxfile>
